# xmcd CD database file
#
# Track frame offsets:
#	182
#	6752
#	45495
#	64110
#	103692
#	130125
#	142837
#	176947
#	190735
#	217922
#	230760
#	244075
#
# Disc length: 3572 seconds
#
# Revision: 0
# Processed by: cddbd v1.5.2PL0 Copyright (c) Steve Scherf et al.
# Submitted via: CDex 1.51
#
DISCID=a30df20c
DTITLE=The Heavy Quartet - Short Stories
DYEAR=1991
DGENRE=Jazz
TTITLE0=Antigone
TTITLE1=Improvisation No. 4
TTITLE2=Slimeball
TTITLE3=Polo Necking
TTITLE4=Gwl?d
TTITLE5=Swampduck
TTITLE6=Bodacious
TTITLE7=Improvisation No.1
TTITLE8=Extremeties
TTITLE9=Tutu
TTITLE10=Strident
TTITLE11=Coasting
EXTD=YEAR: 1991
EXTT0=
EXTT1=
EXTT2=
EXTT3=
EXTT4=
EXTT5=
EXTT6=
EXTT7=
EXTT8=
EXTT9=
EXTT10=
EXTT11=
PLAYORDER=
